<mxfile host="app.diagrams.net" agent="Mozilla/5.0 (Windows NT 10.0; Win64; x64) AppleWebKit/537.36 (KHTML, like Gecko) Chrome/135.0.0.0 Safari/537.36 OPR/120.0.0.0" version="28.1.0">
  <diagram name="Page-1" id="fdpNiBQpQcc6HmA4WOPk">
    <mxGraphModel dx="4313" dy="3008" grid="1" gridSize="10" guides="1" tooltips="1" connect="1" arrows="1" fold="1" page="1" pageScale="1" pageWidth="850" pageHeight="1100" math="0" shadow="0">
      <root>
        <mxCell id="0" />
        <mxCell id="1" parent="0" />
        <mxCell id="utXVmt_dY3kvVRImYmML-50" style="edgeStyle=orthogonalEdgeStyle;rounded=1;orthogonalLoop=1;jettySize=auto;html=1;entryX=0;entryY=0.5;entryDx=0;entryDy=0;strokeWidth=3;endArrow=oval;endFill=1;dashed=1;curved=0;fillColor=#f5f5f5;strokeColor=#666666;" parent="1" source="utXVmt_dY3kvVRImYmML-2" target="utXVmt_dY3kvVRImYmML-45" edge="1">
          <mxGeometry relative="1" as="geometry" />
        </mxCell>
        <mxCell id="utXVmt_dY3kvVRImYmML-2" value="" style="rounded=0;whiteSpace=wrap;html=1;fillColor=#dae8fc;strokeColor=#6c8ebf;opacity=50;strokeWidth=2;" parent="1" vertex="1">
          <mxGeometry x="200" y="85" width="200" height="930" as="geometry" />
        </mxCell>
        <mxCell id="7lYCkj3bSE7TBQGQrSf6-21" style="rounded=0;orthogonalLoop=1;jettySize=auto;html=1;entryX=0;entryY=0.5;entryDx=0;entryDy=0;strokeWidth=2;endArrow=oval;endFill=1;exitX=1;exitY=0.5;exitDx=0;exitDy=0;" edge="1" parent="1" source="utXVmt_dY3kvVRImYmML-3" target="utXVmt_dY3kvVRImYmML-42">
          <mxGeometry relative="1" as="geometry" />
        </mxCell>
        <mxCell id="7lYCkj3bSE7TBQGQrSf6-22" style="rounded=0;orthogonalLoop=1;jettySize=auto;html=1;strokeWidth=2;endArrow=oval;endFill=1;exitX=1;exitY=0.5;exitDx=0;exitDy=0;" edge="1" parent="1" source="utXVmt_dY3kvVRImYmML-3" target="utXVmt_dY3kvVRImYmML-41">
          <mxGeometry relative="1" as="geometry" />
        </mxCell>
        <mxCell id="7lYCkj3bSE7TBQGQrSf6-23" style="rounded=0;orthogonalLoop=1;jettySize=auto;html=1;entryX=0;entryY=0.5;entryDx=0;entryDy=0;strokeWidth=2;endArrow=oval;endFill=1;exitX=1;exitY=0.5;exitDx=0;exitDy=0;" edge="1" parent="1" source="utXVmt_dY3kvVRImYmML-3" target="utXVmt_dY3kvVRImYmML-44">
          <mxGeometry relative="1" as="geometry" />
        </mxCell>
        <mxCell id="7lYCkj3bSE7TBQGQrSf6-25" style="rounded=0;orthogonalLoop=1;jettySize=auto;html=1;entryX=0;entryY=0.5;entryDx=0;entryDy=0;strokeWidth=2;endArrow=oval;endFill=1;exitX=1;exitY=0.5;exitDx=0;exitDy=0;" edge="1" parent="1" source="utXVmt_dY3kvVRImYmML-3" target="utXVmt_dY3kvVRImYmML-43">
          <mxGeometry relative="1" as="geometry" />
        </mxCell>
        <mxCell id="7lYCkj3bSE7TBQGQrSf6-26" style="rounded=0;orthogonalLoop=1;jettySize=auto;html=1;entryX=0;entryY=0.5;entryDx=0;entryDy=0;strokeWidth=2;endArrow=oval;endFill=1;exitX=1;exitY=0.5;exitDx=0;exitDy=0;" edge="1" parent="1" source="utXVmt_dY3kvVRImYmML-3" target="7lYCkj3bSE7TBQGQrSf6-15">
          <mxGeometry relative="1" as="geometry" />
        </mxCell>
        <mxCell id="utXVmt_dY3kvVRImYmML-3" value="&lt;font style=&quot;font-size: 18px;&quot;&gt;Operation Intelligence&lt;/font&gt;" style="rounded=1;whiteSpace=wrap;html=1;fillColor=#6d8764;fontColor=#ffffff;strokeColor=#3A5431;" parent="1" vertex="1">
          <mxGeometry x="220" y="430" width="160" height="60" as="geometry" />
        </mxCell>
        <mxCell id="7lYCkj3bSE7TBQGQrSf6-16" style="rounded=0;orthogonalLoop=1;jettySize=auto;html=1;entryX=0;entryY=0.5;entryDx=0;entryDy=0;strokeWidth=2;exitX=1;exitY=0.5;exitDx=0;exitDy=0;endArrow=oval;endFill=1;" edge="1" parent="1" source="utXVmt_dY3kvVRImYmML-4" target="utXVmt_dY3kvVRImYmML-42">
          <mxGeometry relative="1" as="geometry" />
        </mxCell>
        <mxCell id="7lYCkj3bSE7TBQGQrSf6-17" style="rounded=0;orthogonalLoop=1;jettySize=auto;html=1;entryX=0;entryY=0.5;entryDx=0;entryDy=0;strokeWidth=2;exitX=1;exitY=0.5;exitDx=0;exitDy=0;endArrow=oval;endFill=1;" edge="1" parent="1" source="utXVmt_dY3kvVRImYmML-4" target="utXVmt_dY3kvVRImYmML-41">
          <mxGeometry relative="1" as="geometry" />
        </mxCell>
        <mxCell id="7lYCkj3bSE7TBQGQrSf6-18" style="rounded=0;orthogonalLoop=1;jettySize=auto;html=1;entryX=0;entryY=0.5;entryDx=0;entryDy=0;strokeWidth=2;exitX=1;exitY=0.5;exitDx=0;exitDy=0;endArrow=oval;endFill=1;" edge="1" parent="1" source="utXVmt_dY3kvVRImYmML-4" target="utXVmt_dY3kvVRImYmML-44">
          <mxGeometry relative="1" as="geometry" />
        </mxCell>
        <mxCell id="7lYCkj3bSE7TBQGQrSf6-19" style="rounded=0;orthogonalLoop=1;jettySize=auto;html=1;entryX=0;entryY=0.5;entryDx=0;entryDy=0;strokeWidth=2;exitX=1;exitY=0.5;exitDx=0;exitDy=0;endArrow=oval;endFill=1;" edge="1" parent="1" source="utXVmt_dY3kvVRImYmML-4" target="utXVmt_dY3kvVRImYmML-43">
          <mxGeometry relative="1" as="geometry" />
        </mxCell>
        <mxCell id="7lYCkj3bSE7TBQGQrSf6-20" style="rounded=0;orthogonalLoop=1;jettySize=auto;html=1;entryX=0;entryY=0.5;entryDx=0;entryDy=0;strokeWidth=2;exitX=1;exitY=0.5;exitDx=0;exitDy=0;endArrow=oval;endFill=1;" edge="1" parent="1" source="utXVmt_dY3kvVRImYmML-4" target="7lYCkj3bSE7TBQGQrSf6-15">
          <mxGeometry relative="1" as="geometry" />
        </mxCell>
        <mxCell id="utXVmt_dY3kvVRImYmML-4" value="&lt;font style=&quot;font-size: 18px;&quot;&gt;Strategic&lt;br&gt;Intelligence&lt;/font&gt;" style="rounded=1;whiteSpace=wrap;html=1;fillColor=#647687;fontColor=#ffffff;strokeColor=#314354;" parent="1" vertex="1">
          <mxGeometry x="220" y="250" width="160" height="60" as="geometry" />
        </mxCell>
        <mxCell id="7lYCkj3bSE7TBQGQrSf6-32" style="rounded=0;orthogonalLoop=1;jettySize=auto;html=1;entryX=0;entryY=0.5;entryDx=0;entryDy=0;endArrow=oval;endFill=1;strokeWidth=2;exitX=1;exitY=0.5;exitDx=0;exitDy=0;" edge="1" parent="1" source="utXVmt_dY3kvVRImYmML-5" target="utXVmt_dY3kvVRImYmML-42">
          <mxGeometry relative="1" as="geometry" />
        </mxCell>
        <mxCell id="7lYCkj3bSE7TBQGQrSf6-33" style="rounded=0;orthogonalLoop=1;jettySize=auto;html=1;entryX=0;entryY=0.5;entryDx=0;entryDy=0;endArrow=oval;endFill=1;strokeWidth=2;exitX=1;exitY=0.5;exitDx=0;exitDy=0;" edge="1" parent="1" source="utXVmt_dY3kvVRImYmML-5" target="utXVmt_dY3kvVRImYmML-41">
          <mxGeometry relative="1" as="geometry" />
        </mxCell>
        <mxCell id="7lYCkj3bSE7TBQGQrSf6-34" style="rounded=0;orthogonalLoop=1;jettySize=auto;html=1;entryX=0;entryY=0.5;entryDx=0;entryDy=0;endArrow=oval;endFill=1;strokeWidth=2;exitX=1;exitY=0.5;exitDx=0;exitDy=0;" edge="1" parent="1" source="utXVmt_dY3kvVRImYmML-5" target="utXVmt_dY3kvVRImYmML-44">
          <mxGeometry relative="1" as="geometry" />
        </mxCell>
        <mxCell id="7lYCkj3bSE7TBQGQrSf6-35" style="rounded=0;orthogonalLoop=1;jettySize=auto;html=1;entryX=0;entryY=0.5;entryDx=0;entryDy=0;endArrow=oval;endFill=1;strokeWidth=2;exitX=1;exitY=0.5;exitDx=0;exitDy=0;" edge="1" parent="1" source="utXVmt_dY3kvVRImYmML-5" target="utXVmt_dY3kvVRImYmML-43">
          <mxGeometry relative="1" as="geometry" />
        </mxCell>
        <mxCell id="7lYCkj3bSE7TBQGQrSf6-36" style="rounded=0;orthogonalLoop=1;jettySize=auto;html=1;entryX=0;entryY=0.5;entryDx=0;entryDy=0;endArrow=oval;endFill=1;strokeWidth=2;exitX=1;exitY=0.5;exitDx=0;exitDy=0;" edge="1" parent="1" source="utXVmt_dY3kvVRImYmML-5" target="7lYCkj3bSE7TBQGQrSf6-15">
          <mxGeometry relative="1" as="geometry" />
        </mxCell>
        <mxCell id="utXVmt_dY3kvVRImYmML-5" value="&lt;font style=&quot;font-size: 18px;&quot;&gt;Tactical &lt;br&gt;Intelligence&lt;/font&gt;" style="rounded=1;whiteSpace=wrap;html=1;fillColor=#e51400;fontColor=#ffffff;strokeColor=#B20000;" parent="1" vertex="1">
          <mxGeometry x="220" y="770" width="160" height="60" as="geometry" />
        </mxCell>
        <mxCell id="7lYCkj3bSE7TBQGQrSf6-27" style="rounded=0;orthogonalLoop=1;jettySize=auto;html=1;entryX=0;entryY=0.5;entryDx=0;entryDy=0;endArrow=oval;endFill=1;strokeWidth=2;exitX=1;exitY=0.5;exitDx=0;exitDy=0;" edge="1" parent="1" source="utXVmt_dY3kvVRImYmML-6" target="utXVmt_dY3kvVRImYmML-41">
          <mxGeometry relative="1" as="geometry" />
        </mxCell>
        <mxCell id="7lYCkj3bSE7TBQGQrSf6-28" style="rounded=0;orthogonalLoop=1;jettySize=auto;html=1;entryX=0;entryY=0.5;entryDx=0;entryDy=0;endArrow=oval;endFill=1;strokeWidth=2;exitX=1;exitY=0.5;exitDx=0;exitDy=0;" edge="1" parent="1" source="utXVmt_dY3kvVRImYmML-6" target="utXVmt_dY3kvVRImYmML-42">
          <mxGeometry relative="1" as="geometry" />
        </mxCell>
        <mxCell id="7lYCkj3bSE7TBQGQrSf6-29" style="rounded=0;orthogonalLoop=1;jettySize=auto;html=1;entryX=0;entryY=0.5;entryDx=0;entryDy=0;endArrow=oval;endFill=1;strokeWidth=2;exitX=1;exitY=0.5;exitDx=0;exitDy=0;" edge="1" parent="1" source="utXVmt_dY3kvVRImYmML-6" target="utXVmt_dY3kvVRImYmML-44">
          <mxGeometry relative="1" as="geometry" />
        </mxCell>
        <mxCell id="7lYCkj3bSE7TBQGQrSf6-30" style="rounded=0;orthogonalLoop=1;jettySize=auto;html=1;entryX=0;entryY=0.5;entryDx=0;entryDy=0;endArrow=oval;endFill=1;strokeWidth=2;exitX=1;exitY=0.5;exitDx=0;exitDy=0;" edge="1" parent="1" source="utXVmt_dY3kvVRImYmML-6" target="utXVmt_dY3kvVRImYmML-43">
          <mxGeometry relative="1" as="geometry" />
        </mxCell>
        <mxCell id="7lYCkj3bSE7TBQGQrSf6-31" style="rounded=0;orthogonalLoop=1;jettySize=auto;html=1;entryX=0;entryY=0.5;entryDx=0;entryDy=0;endArrow=oval;endFill=1;strokeWidth=2;exitX=1;exitY=0.5;exitDx=0;exitDy=0;" edge="1" parent="1" source="utXVmt_dY3kvVRImYmML-6" target="7lYCkj3bSE7TBQGQrSf6-15">
          <mxGeometry relative="1" as="geometry" />
        </mxCell>
        <mxCell id="utXVmt_dY3kvVRImYmML-6" value="&lt;span style=&quot;font-size: 18px;&quot;&gt;Technical&lt;br&gt;Intelligence&lt;/span&gt;" style="rounded=1;whiteSpace=wrap;html=1;fillColor=#e3c800;fontColor=#000000;strokeColor=#B09500;" parent="1" vertex="1">
          <mxGeometry x="220" y="610" width="160" height="60" as="geometry" />
        </mxCell>
        <mxCell id="7lYCkj3bSE7TBQGQrSf6-10" style="edgeStyle=orthogonalEdgeStyle;rounded=0;orthogonalLoop=1;jettySize=auto;html=1;entryX=0;entryY=1;entryDx=0;entryDy=0;endArrow=oval;endFill=1;strokeWidth=4;strokeColor=#7D8590;" edge="1" parent="1" source="utXVmt_dY3kvVRImYmML-12" target="7lYCkj3bSE7TBQGQrSf6-3">
          <mxGeometry relative="1" as="geometry" />
        </mxCell>
        <mxCell id="utXVmt_dY3kvVRImYmML-12" value="" style="rounded=0;whiteSpace=wrap;html=1;fillColor=#f5f5f5;fontColor=#333333;strokeColor=#666666;opacity=50;strokeWidth=2;" parent="1" vertex="1">
          <mxGeometry x="-120" y="85" width="200" height="930" as="geometry" />
        </mxCell>
        <mxCell id="utXVmt_dY3kvVRImYmML-23" style="rounded=0;orthogonalLoop=1;jettySize=auto;html=1;entryX=0;entryY=0.5;entryDx=0;entryDy=0;exitX=1;exitY=0.5;exitDx=0;exitDy=0;strokeWidth=2;endArrow=oval;endFill=1;" parent="1" source="utXVmt_dY3kvVRImYmML-13" target="utXVmt_dY3kvVRImYmML-4" edge="1">
          <mxGeometry relative="1" as="geometry" />
        </mxCell>
        <mxCell id="utXVmt_dY3kvVRImYmML-24" style="rounded=0;orthogonalLoop=1;jettySize=auto;html=1;entryX=0;entryY=0.5;entryDx=0;entryDy=0;strokeWidth=2;endArrow=oval;endFill=1;exitX=1;exitY=0.5;exitDx=0;exitDy=0;" parent="1" source="utXVmt_dY3kvVRImYmML-13" target="utXVmt_dY3kvVRImYmML-3" edge="1">
          <mxGeometry relative="1" as="geometry" />
        </mxCell>
        <mxCell id="utXVmt_dY3kvVRImYmML-26" style="rounded=0;orthogonalLoop=1;jettySize=auto;html=1;entryX=0;entryY=0.5;entryDx=0;entryDy=0;endArrow=oval;endFill=1;strokeWidth=2;exitX=1;exitY=0.5;exitDx=0;exitDy=0;" parent="1" source="utXVmt_dY3kvVRImYmML-13" target="utXVmt_dY3kvVRImYmML-6" edge="1">
          <mxGeometry relative="1" as="geometry" />
        </mxCell>
        <mxCell id="utXVmt_dY3kvVRImYmML-27" style="rounded=0;orthogonalLoop=1;jettySize=auto;html=1;entryX=0;entryY=0.5;entryDx=0;entryDy=0;endArrow=oval;endFill=1;strokeWidth=2;" parent="1" target="utXVmt_dY3kvVRImYmML-5" edge="1">
          <mxGeometry relative="1" as="geometry">
            <mxPoint x="60" y="380" as="sourcePoint" />
          </mxGeometry>
        </mxCell>
        <mxCell id="utXVmt_dY3kvVRImYmML-13" value="&lt;font style=&quot;font-size: 18px;&quot;&gt;Private&lt;br&gt;Intelligence&lt;/font&gt;" style="rounded=1;whiteSpace=wrap;html=1;fillColor=#BBBBBB;strokeColor=light-dark(#000000, #ffacac);" parent="1" vertex="1">
          <mxGeometry x="-100" y="350" width="160" height="60" as="geometry" />
        </mxCell>
        <mxCell id="utXVmt_dY3kvVRImYmML-28" style="rounded=0;orthogonalLoop=1;jettySize=auto;html=1;entryX=0;entryY=0.5;entryDx=0;entryDy=0;strokeColor=default;strokeWidth=2;endArrow=oval;endFill=1;exitX=1;exitY=0.5;exitDx=0;exitDy=0;" parent="1" source="utXVmt_dY3kvVRImYmML-14" target="utXVmt_dY3kvVRImYmML-4" edge="1">
          <mxGeometry relative="1" as="geometry" />
        </mxCell>
        <mxCell id="utXVmt_dY3kvVRImYmML-29" style="rounded=0;orthogonalLoop=1;jettySize=auto;html=1;entryX=0;entryY=0.5;entryDx=0;entryDy=0;strokeColor=default;strokeWidth=2;endArrow=oval;endFill=1;" parent="1" target="utXVmt_dY3kvVRImYmML-3" edge="1">
          <mxGeometry relative="1" as="geometry">
            <mxPoint x="60" y="200" as="sourcePoint" />
          </mxGeometry>
        </mxCell>
        <mxCell id="utXVmt_dY3kvVRImYmML-30" style="rounded=0;orthogonalLoop=1;jettySize=auto;html=1;entryX=0;entryY=0.5;entryDx=0;entryDy=0;strokeColor=default;strokeWidth=2;endArrow=oval;endFill=1;exitX=1;exitY=0.5;exitDx=0;exitDy=0;" parent="1" source="utXVmt_dY3kvVRImYmML-14" target="utXVmt_dY3kvVRImYmML-6" edge="1">
          <mxGeometry relative="1" as="geometry" />
        </mxCell>
        <mxCell id="utXVmt_dY3kvVRImYmML-31" style="rounded=0;orthogonalLoop=1;jettySize=auto;html=1;strokeColor=default;strokeWidth=2;endArrow=oval;endFill=1;exitX=1;exitY=0.5;exitDx=0;exitDy=0;" parent="1" source="utXVmt_dY3kvVRImYmML-14" edge="1">
          <mxGeometry relative="1" as="geometry">
            <mxPoint x="220" y="800" as="targetPoint" />
            <mxPoint x="60" y="200" as="sourcePoint" />
          </mxGeometry>
        </mxCell>
        <mxCell id="utXVmt_dY3kvVRImYmML-14" value="&lt;span style=&quot;font-size: 18px;&quot;&gt;OSINT&lt;/span&gt;" style="rounded=1;whiteSpace=wrap;html=1;fillColor=#BBBBBB;strokeColor=light-dark(#000000, #ffacac);fontColor=#333333;" parent="1" vertex="1">
          <mxGeometry x="-100" y="170" width="160" height="60" as="geometry" />
        </mxCell>
        <mxCell id="utXVmt_dY3kvVRImYmML-36" style="rounded=0;orthogonalLoop=1;jettySize=auto;html=1;entryX=0;entryY=0.5;entryDx=0;entryDy=0;strokeWidth=2;endArrow=oval;endFill=1;exitX=1;exitY=0.5;exitDx=0;exitDy=0;" parent="1" source="utXVmt_dY3kvVRImYmML-15" target="utXVmt_dY3kvVRImYmML-5" edge="1">
          <mxGeometry relative="1" as="geometry" />
        </mxCell>
        <mxCell id="utXVmt_dY3kvVRImYmML-37" style="rounded=0;orthogonalLoop=1;jettySize=auto;html=1;entryX=0;entryY=0.5;entryDx=0;entryDy=0;strokeWidth=2;endArrow=oval;endFill=1;exitX=1;exitY=0.5;exitDx=0;exitDy=0;" parent="1" source="utXVmt_dY3kvVRImYmML-15" target="utXVmt_dY3kvVRImYmML-6" edge="1">
          <mxGeometry relative="1" as="geometry" />
        </mxCell>
        <mxCell id="utXVmt_dY3kvVRImYmML-38" style="rounded=0;orthogonalLoop=1;jettySize=auto;html=1;entryX=0;entryY=0.5;entryDx=0;entryDy=0;strokeWidth=2;endArrow=oval;endFill=1;exitX=1;exitY=0.5;exitDx=0;exitDy=0;" parent="1" source="utXVmt_dY3kvVRImYmML-15" target="utXVmt_dY3kvVRImYmML-3" edge="1">
          <mxGeometry relative="1" as="geometry" />
        </mxCell>
        <mxCell id="utXVmt_dY3kvVRImYmML-39" style="rounded=0;orthogonalLoop=1;jettySize=auto;html=1;entryX=0;entryY=0.5;entryDx=0;entryDy=0;strokeWidth=2;endArrow=oval;endFill=1;exitX=1;exitY=0.5;exitDx=0;exitDy=0;" parent="1" source="utXVmt_dY3kvVRImYmML-15" target="utXVmt_dY3kvVRImYmML-4" edge="1">
          <mxGeometry relative="1" as="geometry" />
        </mxCell>
        <mxCell id="utXVmt_dY3kvVRImYmML-15" value="&lt;font style=&quot;color: rgb(0, 0, 0); font-size: 18px;&quot;&gt;Industry&lt;br&gt;Logs&lt;/font&gt;" style="rounded=1;whiteSpace=wrap;html=1;fillColor=#BBBBBB;fontColor=#ffffff;strokeColor=light-dark(#000000, #ffacac);" parent="1" vertex="1">
          <mxGeometry x="-100" y="860" width="160" height="60" as="geometry" />
        </mxCell>
        <mxCell id="utXVmt_dY3kvVRImYmML-32" style="rounded=0;orthogonalLoop=1;jettySize=auto;html=1;entryX=0;entryY=0.5;entryDx=0;entryDy=0;curved=0;endArrow=oval;endFill=1;exitX=1;exitY=0.5;exitDx=0;exitDy=0;strokeWidth=2;" parent="1" source="utXVmt_dY3kvVRImYmML-16" target="utXVmt_dY3kvVRImYmML-4" edge="1">
          <mxGeometry relative="1" as="geometry" />
        </mxCell>
        <mxCell id="utXVmt_dY3kvVRImYmML-33" style="rounded=0;orthogonalLoop=1;jettySize=auto;html=1;curved=0;endArrow=oval;endFill=1;exitX=1;exitY=0.5;exitDx=0;exitDy=0;strokeWidth=2;entryX=0;entryY=0.5;entryDx=0;entryDy=0;" parent="1" source="utXVmt_dY3kvVRImYmML-16" edge="1" target="utXVmt_dY3kvVRImYmML-3">
          <mxGeometry relative="1" as="geometry">
            <mxPoint x="220" y="420" as="targetPoint" />
          </mxGeometry>
        </mxCell>
        <mxCell id="utXVmt_dY3kvVRImYmML-34" style="rounded=0;orthogonalLoop=1;jettySize=auto;html=1;curved=0;endArrow=oval;endFill=1;exitX=1;exitY=0.5;exitDx=0;exitDy=0;strokeWidth=2;entryX=0;entryY=0.5;entryDx=0;entryDy=0;" parent="1" source="utXVmt_dY3kvVRImYmML-16" edge="1" target="utXVmt_dY3kvVRImYmML-6">
          <mxGeometry relative="1" as="geometry">
            <mxPoint x="220" y="610" as="targetPoint" />
          </mxGeometry>
        </mxCell>
        <mxCell id="utXVmt_dY3kvVRImYmML-35" style="rounded=0;orthogonalLoop=1;jettySize=auto;html=1;entryX=0;entryY=0.5;entryDx=0;entryDy=0;curved=0;endArrow=oval;endFill=1;exitX=1;exitY=0.5;exitDx=0;exitDy=0;strokeWidth=2;" parent="1" source="utXVmt_dY3kvVRImYmML-16" target="utXVmt_dY3kvVRImYmML-5" edge="1">
          <mxGeometry relative="1" as="geometry" />
        </mxCell>
        <mxCell id="utXVmt_dY3kvVRImYmML-16" value="&lt;span style=&quot;font-size: 18px;&quot;&gt;Governmental&lt;br&gt;Alerts&lt;/span&gt;" style="rounded=1;whiteSpace=wrap;html=1;fillColor=#BBBBBB;fontColor=#000000;strokeColor=light-dark(#000000, #ffacac);" parent="1" vertex="1">
          <mxGeometry x="-100" y="690" width="160" height="60" as="geometry" />
        </mxCell>
        <mxCell id="utXVmt_dY3kvVRImYmML-18" style="rounded=0;orthogonalLoop=1;jettySize=auto;html=1;entryX=0;entryY=0.5;entryDx=0;entryDy=0;exitX=1;exitY=0.5;exitDx=0;exitDy=0;strokeWidth=2;endArrow=oval;endFill=1;" parent="1" source="utXVmt_dY3kvVRImYmML-17" target="utXVmt_dY3kvVRImYmML-4" edge="1">
          <mxGeometry relative="1" as="geometry" />
        </mxCell>
        <mxCell id="utXVmt_dY3kvVRImYmML-19" style="rounded=0;orthogonalLoop=1;jettySize=auto;html=1;entryX=0;entryY=0.5;entryDx=0;entryDy=0;exitX=1;exitY=0.5;exitDx=0;exitDy=0;strokeWidth=2;endArrow=oval;endFill=1;" parent="1" source="utXVmt_dY3kvVRImYmML-17" target="utXVmt_dY3kvVRImYmML-3" edge="1">
          <mxGeometry relative="1" as="geometry" />
        </mxCell>
        <mxCell id="utXVmt_dY3kvVRImYmML-20" style="rounded=0;orthogonalLoop=1;jettySize=auto;html=1;entryX=0;entryY=0.5;entryDx=0;entryDy=0;strokeWidth=2;endArrow=oval;endFill=1;" parent="1" target="utXVmt_dY3kvVRImYmML-6" edge="1">
          <mxGeometry relative="1" as="geometry">
            <mxPoint x="60" y="550" as="sourcePoint" />
          </mxGeometry>
        </mxCell>
        <mxCell id="utXVmt_dY3kvVRImYmML-22" style="rounded=0;orthogonalLoop=1;jettySize=auto;html=1;entryX=0;entryY=0.5;entryDx=0;entryDy=0;strokeWidth=2;endArrow=oval;endFill=1;" parent="1" target="utXVmt_dY3kvVRImYmML-5" edge="1">
          <mxGeometry relative="1" as="geometry">
            <mxPoint x="60" y="550" as="sourcePoint" />
          </mxGeometry>
        </mxCell>
        <mxCell id="utXVmt_dY3kvVRImYmML-17" value="&lt;font style=&quot;font-size: 18px;&quot;&gt;Private&lt;br&gt;Intelligence&lt;/font&gt;" style="rounded=1;whiteSpace=wrap;html=1;fillColor=#BBBBBB;strokeColor=light-dark(#000000, #ffacac);" parent="1" vertex="1">
          <mxGeometry x="-100" y="520" width="160" height="60" as="geometry" />
        </mxCell>
        <mxCell id="7lYCkj3bSE7TBQGQrSf6-12" style="edgeStyle=orthogonalEdgeStyle;rounded=0;orthogonalLoop=1;jettySize=auto;html=1;exitX=0.5;exitY=0;exitDx=0;exitDy=0;entryX=0;entryY=1;entryDx=0;entryDy=0;endArrow=oval;endFill=1;strokeWidth=4;strokeColor=#7D8590;" edge="1" parent="1" source="utXVmt_dY3kvVRImYmML-40" target="7lYCkj3bSE7TBQGQrSf6-9">
          <mxGeometry relative="1" as="geometry" />
        </mxCell>
        <mxCell id="utXVmt_dY3kvVRImYmML-40" value="" style="rounded=0;whiteSpace=wrap;html=1;fillColor=#ffe6cc;strokeColor=#d79b00;opacity=50;strokeWidth=2;" parent="1" vertex="1">
          <mxGeometry x="520" y="85" width="200" height="930" as="geometry" />
        </mxCell>
        <mxCell id="7lYCkj3bSE7TBQGQrSf6-46" style="rounded=0;orthogonalLoop=1;jettySize=auto;html=1;entryX=0;entryY=0.5;entryDx=0;entryDy=0;strokeWidth=2;endArrow=oval;endFill=1;exitX=1;exitY=0.5;exitDx=0;exitDy=0;" edge="1" parent="1" source="utXVmt_dY3kvVRImYmML-41" target="7lYCkj3bSE7TBQGQrSf6-40">
          <mxGeometry relative="1" as="geometry" />
        </mxCell>
        <mxCell id="utXVmt_dY3kvVRImYmML-41" value="&lt;font style=&quot;font-size: 18px;&quot;&gt;TTP Analysis&lt;/font&gt;" style="rounded=1;whiteSpace=wrap;html=1;fillColor=#647687;fontColor=#ffffff;strokeColor=#3A5431;" parent="1" vertex="1">
          <mxGeometry x="540" y="350" width="160" height="60" as="geometry" />
        </mxCell>
        <mxCell id="7lYCkj3bSE7TBQGQrSf6-45" style="rounded=0;orthogonalLoop=1;jettySize=auto;html=1;entryX=0;entryY=0.5;entryDx=0;entryDy=0;strokeWidth=2;endArrow=oval;endFill=1;exitX=1;exitY=0.5;exitDx=0;exitDy=0;" edge="1" parent="1" source="utXVmt_dY3kvVRImYmML-42" target="7lYCkj3bSE7TBQGQrSf6-40">
          <mxGeometry relative="1" as="geometry" />
        </mxCell>
        <mxCell id="utXVmt_dY3kvVRImYmML-42" value="&lt;span style=&quot;font-size: 18px;&quot;&gt;IOC Analysis&lt;/span&gt;" style="rounded=1;whiteSpace=wrap;html=1;fillColor=#647687;fontColor=#ffffff;strokeColor=#314354;" parent="1" vertex="1">
          <mxGeometry x="540" y="170" width="160" height="60" as="geometry" />
        </mxCell>
        <mxCell id="7lYCkj3bSE7TBQGQrSf6-48" style="rounded=0;orthogonalLoop=1;jettySize=auto;html=1;entryX=0;entryY=0.5;entryDx=0;entryDy=0;strokeWidth=2;endArrow=oval;endFill=1;exitX=1;exitY=0.5;exitDx=0;exitDy=0;" edge="1" parent="1" source="utXVmt_dY3kvVRImYmML-43" target="7lYCkj3bSE7TBQGQrSf6-40">
          <mxGeometry relative="1" as="geometry" />
        </mxCell>
        <mxCell id="utXVmt_dY3kvVRImYmML-43" value="&lt;span style=&quot;font-size: 18px;&quot;&gt;Integrating with SIEM&lt;/span&gt;" style="rounded=1;whiteSpace=wrap;html=1;fillColor=#647687;fontColor=#ffffff;strokeColor=#B20000;" parent="1" vertex="1">
          <mxGeometry x="540" y="690" width="160" height="60" as="geometry" />
        </mxCell>
        <mxCell id="7lYCkj3bSE7TBQGQrSf6-47" style="rounded=0;orthogonalLoop=1;jettySize=auto;html=1;entryX=0;entryY=0.5;entryDx=0;entryDy=0;strokeWidth=2;endArrow=oval;endFill=1;" edge="1" parent="1" source="utXVmt_dY3kvVRImYmML-44" target="7lYCkj3bSE7TBQGQrSf6-40">
          <mxGeometry relative="1" as="geometry" />
        </mxCell>
        <mxCell id="utXVmt_dY3kvVRImYmML-44" value="&lt;span style=&quot;font-size: 18px;&quot;&gt;&lt;font style=&quot;color: rgb(255, 255, 255);&quot;&gt;Anomaly Detection&lt;/font&gt;&lt;/span&gt;" style="rounded=1;whiteSpace=wrap;html=1;fillColor=#647687;fontColor=#000000;strokeColor=#B09500;" parent="1" vertex="1">
          <mxGeometry x="540" y="520" width="160" height="60" as="geometry" />
        </mxCell>
        <mxCell id="7lYCkj3bSE7TBQGQrSf6-3" value="&lt;span style=&quot;font-size: 32px;&quot;&gt;Intelligence&lt;/span&gt;&lt;br style=&quot;font-size: 32px;&quot;&gt;&lt;span style=&quot;font-size: 32px;&quot;&gt;Collection&lt;/span&gt;" style="rounded=1;whiteSpace=wrap;html=1;rotation=-35;fillColor=default;" vertex="1" parent="1">
          <mxGeometry x="-85.13" y="-176.77" width="393" height="100" as="geometry" />
        </mxCell>
        <mxCell id="7lYCkj3bSE7TBQGQrSf6-7" value="&lt;span style=&quot;font-size: 32px;&quot;&gt;Processing the Intelligence&lt;/span&gt;" style="rounded=1;whiteSpace=wrap;html=1;rotation=-35;fillColor=default;" vertex="1" parent="1">
          <mxGeometry x="239.04" y="-173.04" width="380" height="100" as="geometry" />
        </mxCell>
        <mxCell id="7lYCkj3bSE7TBQGQrSf6-9" value="&lt;span style=&quot;font-size: 32px;&quot;&gt;Actioning the Findings&lt;/span&gt;" style="rounded=1;whiteSpace=wrap;html=1;rotation=-35;fillColor=default;" vertex="1" parent="1">
          <mxGeometry x="554.87" y="-176.77" width="393" height="100" as="geometry" />
        </mxCell>
        <mxCell id="7lYCkj3bSE7TBQGQrSf6-11" style="edgeStyle=orthogonalEdgeStyle;rounded=0;orthogonalLoop=1;jettySize=auto;html=1;exitX=0.5;exitY=0;exitDx=0;exitDy=0;endArrow=oval;endFill=1;strokeWidth=4;strokeColor=#7D8590;" edge="1" parent="1" source="utXVmt_dY3kvVRImYmML-2">
          <mxGeometry relative="1" as="geometry">
            <mxPoint x="300" y="20" as="targetPoint" />
          </mxGeometry>
        </mxCell>
        <mxCell id="7lYCkj3bSE7TBQGQrSf6-50" style="rounded=0;orthogonalLoop=1;jettySize=auto;html=1;entryX=0;entryY=0.5;entryDx=0;entryDy=0;strokeWidth=2;endArrow=oval;endFill=1;exitX=1;exitY=0.5;exitDx=0;exitDy=0;" edge="1" parent="1" source="7lYCkj3bSE7TBQGQrSf6-15" target="7lYCkj3bSE7TBQGQrSf6-40">
          <mxGeometry relative="1" as="geometry" />
        </mxCell>
        <mxCell id="7lYCkj3bSE7TBQGQrSf6-15" value="&lt;span style=&quot;font-size: 18px;&quot;&gt;Automated Response&lt;/span&gt;" style="rounded=1;whiteSpace=wrap;html=1;fillColor=#647687;fontColor=#ffffff;strokeColor=#B20000;" vertex="1" parent="1">
          <mxGeometry x="540" y="860" width="160" height="60" as="geometry" />
        </mxCell>
        <mxCell id="7lYCkj3bSE7TBQGQrSf6-37" value="" style="group" vertex="1" connectable="0" parent="1">
          <mxGeometry x="400" y="1100" width="570" height="320" as="geometry" />
        </mxCell>
        <mxCell id="utXVmt_dY3kvVRImYmML-45" value="" style="rounded=1;whiteSpace=wrap;html=1;" parent="7lYCkj3bSE7TBQGQrSf6-37" vertex="1">
          <mxGeometry width="570" height="320" as="geometry" />
        </mxCell>
        <mxCell id="utXVmt_dY3kvVRImYmML-46" value="&lt;span style=&quot;font-size: 18px;&quot;&gt;&lt;b&gt;Strategic Intelligence&lt;/b&gt;: Focuses on long-term trends, high-level threats, and potential geopolitical risks.&lt;/span&gt;" style="rounded=1;whiteSpace=wrap;html=1;fillColor=#647687;fontColor=#ffffff;strokeColor=#314354;" parent="7lYCkj3bSE7TBQGQrSf6-37" vertex="1">
          <mxGeometry x="20" y="20" width="520" height="60" as="geometry" />
        </mxCell>
        <mxCell id="utXVmt_dY3kvVRImYmML-47" value="&lt;font style=&quot;font-size: 18px;&quot;&gt;&lt;b&gt;Operational Intelligence&lt;/b&gt;: Provides insights into ongoing or imminent attacks and incidents.&lt;/font&gt;" style="rounded=1;whiteSpace=wrap;html=1;fillColor=#6d8764;fontColor=#ffffff;strokeColor=#3A5431;" parent="7lYCkj3bSE7TBQGQrSf6-37" vertex="1">
          <mxGeometry x="20" y="90" width="520" height="60" as="geometry" />
        </mxCell>
        <mxCell id="utXVmt_dY3kvVRImYmML-48" value="&lt;span style=&quot;font-size: 18px;&quot;&gt;&lt;b&gt;Technical Intelligence&lt;/b&gt;: Detailed information on specific indicators of compromise (IOCs), such as IPs, URLs, hashes, and domain names.&lt;/span&gt;" style="rounded=1;whiteSpace=wrap;html=1;fillColor=#e3c800;fontColor=#000000;strokeColor=#B09500;" parent="7lYCkj3bSE7TBQGQrSf6-37" vertex="1">
          <mxGeometry x="20" y="160" width="520" height="70" as="geometry" />
        </mxCell>
        <mxCell id="utXVmt_dY3kvVRImYmML-49" value="&lt;span style=&quot;font-size: 18px;&quot;&gt;&lt;b&gt;Tactical Intelligence&lt;/b&gt;: Focuses on attacker TTPs (Tactics, Techniques, Procedures) and behavior patterns.&lt;/span&gt;" style="rounded=1;whiteSpace=wrap;html=1;fillColor=#e51400;fontColor=#ffffff;strokeColor=#B20000;" parent="7lYCkj3bSE7TBQGQrSf6-37" vertex="1">
          <mxGeometry x="20" y="240" width="520" height="60" as="geometry" />
        </mxCell>
        <mxCell id="7lYCkj3bSE7TBQGQrSf6-56" style="edgeStyle=orthogonalEdgeStyle;rounded=0;orthogonalLoop=1;jettySize=auto;html=1;entryX=1.01;entryY=0.68;entryDx=0;entryDy=0;entryPerimeter=0;curved=1;strokeWidth=2;" edge="1" parent="1" source="7lYCkj3bSE7TBQGQrSf6-40" target="7lYCkj3bSE7TBQGQrSf6-40">
          <mxGeometry relative="1" as="geometry">
            <mxPoint x="1340" y="560" as="targetPoint" />
            <Array as="points">
              <mxPoint x="1190" y="380" />
              <mxPoint x="1190" y="717" />
            </Array>
          </mxGeometry>
        </mxCell>
        <mxCell id="7lYCkj3bSE7TBQGQrSf6-40" value="" style="rounded=0;whiteSpace=wrap;html=1;fillColor=#f8cecc;strokeColor=#b85450;opacity=50;strokeWidth=2;" vertex="1" parent="1">
          <mxGeometry x="840" y="85" width="200" height="930" as="geometry" />
        </mxCell>
        <mxCell id="7lYCkj3bSE7TBQGQrSf6-41" value="&lt;font style=&quot;font-size: 18px;&quot;&gt;Refinement&lt;/font&gt;" style="rounded=1;whiteSpace=wrap;html=1;fillColor=#647687;fontColor=#ffffff;strokeColor=#3A5431;" vertex="1" parent="1">
          <mxGeometry x="860" y="430" width="160" height="60" as="geometry" />
        </mxCell>
        <mxCell id="7lYCkj3bSE7TBQGQrSf6-42" value="&lt;span style=&quot;font-size: 18px;&quot;&gt;Testing and&lt;br&gt;Validation&lt;/span&gt;" style="rounded=1;whiteSpace=wrap;html=1;fillColor=#647687;fontColor=#ffffff;strokeColor=#314354;" vertex="1" parent="1">
          <mxGeometry x="860" y="250" width="160" height="60" as="geometry" />
        </mxCell>
        <mxCell id="7lYCkj3bSE7TBQGQrSf6-43" value="&lt;span style=&quot;font-size: 18px;&quot;&gt;Collaboration&lt;/span&gt;" style="rounded=1;whiteSpace=wrap;html=1;fillColor=#647687;fontColor=#ffffff;strokeColor=#B20000;" vertex="1" parent="1">
          <mxGeometry x="860" y="770" width="160" height="60" as="geometry" />
        </mxCell>
        <mxCell id="7lYCkj3bSE7TBQGQrSf6-44" value="&lt;span style=&quot;font-size: 18px;&quot;&gt;&lt;font style=&quot;color: rgb(255, 255, 255);&quot;&gt;Threat Intel Feed&lt;br&gt;Update&lt;/font&gt;&lt;/span&gt;" style="rounded=1;whiteSpace=wrap;html=1;fillColor=#647687;fontColor=#000000;strokeColor=#B09500;" vertex="1" parent="1">
          <mxGeometry x="860" y="600" width="160" height="60" as="geometry" />
        </mxCell>
        <mxCell id="7lYCkj3bSE7TBQGQrSf6-53" style="edgeStyle=orthogonalEdgeStyle;rounded=0;orthogonalLoop=1;jettySize=auto;html=1;exitX=0.5;exitY=0;exitDx=0;exitDy=0;entryX=0;entryY=1;entryDx=0;entryDy=0;endArrow=oval;endFill=1;strokeWidth=4;strokeColor=#7D8590;" edge="1" parent="1" target="7lYCkj3bSE7TBQGQrSf6-54">
          <mxGeometry relative="1" as="geometry">
            <mxPoint x="942.9971086375076" y="85.00000000000006" as="sourcePoint" />
          </mxGeometry>
        </mxCell>
        <mxCell id="7lYCkj3bSE7TBQGQrSf6-54" value="&lt;span style=&quot;font-size: 32px;&quot;&gt;Continuous Improvement&lt;/span&gt;" style="rounded=1;whiteSpace=wrap;html=1;rotation=-35;fillColor=default;" vertex="1" parent="1">
          <mxGeometry x="878.13" y="-175.91" width="390" height="100" as="geometry" />
        </mxCell>
      </root>
    </mxGraphModel>
  </diagram>
</mxfile>
